<mxfile host="Electron" agent="Mozilla/5.0 (X11; Linux x86_64) AppleWebKit/537.36 (KHTML, like Gecko) draw.io/28.1.2 Chrome/138.0.7204.243 Electron/37.4.0 Safari/537.36" version="28.1.2">
  <diagram name="Page-1" id="JKbk1zlz7c1vLf2e8f3D">
    <mxGraphModel dx="2000" dy="1203" grid="1" gridSize="10" guides="1" tooltips="1" connect="1" arrows="1" fold="1" page="1" pageScale="1" pageWidth="850" pageHeight="1100" math="0" shadow="0">
      <root>
        <mxCell id="0" />
        <mxCell id="1" parent="0" />
        <mxCell id="Z_SgFZfvHmqBYEVTfse2-1" value="Pose JSON files" style="rounded=0;whiteSpace=wrap;html=1;fillColor=#dae8fc;strokeColor=#6c8ebf;" parent="1" vertex="1">
          <mxGeometry x="120" y="180" width="120" height="60" as="geometry" />
        </mxCell>
        <mxCell id="Z_SgFZfvHmqBYEVTfse2-2" value="Motion JSON files" style="rounded=0;whiteSpace=wrap;html=1;fillColor=#dae8fc;strokeColor=#6c8ebf;" parent="1" vertex="1">
          <mxGeometry x="120" y="270" width="120" height="60" as="geometry" />
        </mxCell>
        <mxCell id="Z_SgFZfvHmqBYEVTfse2-3" value="" style="endArrow=classic;html=1;rounded=0;exitX=1;exitY=0.5;exitDx=0;exitDy=0;" parent="1" edge="1">
          <mxGeometry width="50" height="50" relative="1" as="geometry">
            <mxPoint x="240" y="200" as="sourcePoint" />
            <mxPoint x="310" y="220" as="targetPoint" />
          </mxGeometry>
        </mxCell>
        <mxCell id="Z_SgFZfvHmqBYEVTfse2-4" value="Combine into single csv" style="rounded=0;whiteSpace=wrap;html=1;" parent="1" vertex="1">
          <mxGeometry x="310" y="220" width="120" height="60" as="geometry" />
        </mxCell>
        <mxCell id="Z_SgFZfvHmqBYEVTfse2-5" value="" style="endArrow=classic;html=1;rounded=0;exitX=1;exitY=0.5;exitDx=0;exitDy=0;" parent="1" source="Z_SgFZfvHmqBYEVTfse2-2" edge="1">
          <mxGeometry width="50" height="50" relative="1" as="geometry">
            <mxPoint x="340" y="350" as="sourcePoint" />
            <mxPoint x="310" y="280" as="targetPoint" />
            <Array as="points" />
          </mxGeometry>
        </mxCell>
        <mxCell id="Z_SgFZfvHmqBYEVTfse2-6" value="" style="endArrow=classic;html=1;rounded=0;" parent="1" edge="1">
          <mxGeometry width="50" height="50" relative="1" as="geometry">
            <mxPoint x="430" y="249" as="sourcePoint" />
            <mxPoint x="530" y="249" as="targetPoint" />
          </mxGeometry>
        </mxCell>
        <mxCell id="mn6Bz9EQbWsIdcI53Otu-1" value="" style="rounded=0;whiteSpace=wrap;html=1;fillColor=none;fontColor=#333333;strokeColor=#666666;" vertex="1" parent="1">
          <mxGeometry x="530" y="170" width="270" height="160" as="geometry" />
        </mxCell>
        <mxCell id="mn6Bz9EQbWsIdcI53Otu-2" value="Normalization" style="text;html=1;align=center;verticalAlign=middle;resizable=0;points=[];autosize=1;strokeColor=none;fillColor=none;" vertex="1" parent="1">
          <mxGeometry x="425" y="220" width="100" height="30" as="geometry" />
        </mxCell>
        <mxCell id="mn6Bz9EQbWsIdcI53Otu-3" value="Training per joint" style="text;html=1;align=center;verticalAlign=middle;resizable=0;points=[];autosize=1;strokeColor=none;fillColor=none;" vertex="1" parent="1">
          <mxGeometry x="600" y="170" width="110" height="30" as="geometry" />
        </mxCell>
        <mxCell id="mn6Bz9EQbWsIdcI53Otu-4" value="&lt;span style=&quot;padding-left: 8px; padding-right: 8px; justify-content: center; color: rgb(40, 37, 61);&quot;&gt;AutoGluon TabularPredictor (regression)&lt;/span&gt;" style="rounded=0;whiteSpace=wrap;html=1;" vertex="1" parent="1">
          <mxGeometry x="660" y="220" width="120" height="60" as="geometry" />
        </mxCell>
        <mxCell id="mn6Bz9EQbWsIdcI53Otu-5" value="&lt;span style=&quot;padding-left: 8px; padding-right: 8px; justify-content: center; color: rgb(40, 37, 61);&quot;&gt;Train/Test Split&lt;/span&gt;" style="rounded=1;whiteSpace=wrap;html=1;" vertex="1" parent="1">
          <mxGeometry x="530" y="230" width="80" height="40" as="geometry" />
        </mxCell>
        <mxCell id="mn6Bz9EQbWsIdcI53Otu-7" value="" style="endArrow=classic;html=1;rounded=0;entryX=0;entryY=0.5;entryDx=0;entryDy=0;" edge="1" parent="1" target="mn6Bz9EQbWsIdcI53Otu-4">
          <mxGeometry width="50" height="50" relative="1" as="geometry">
            <mxPoint x="610" y="250" as="sourcePoint" />
            <mxPoint x="660" y="200" as="targetPoint" />
          </mxGeometry>
        </mxCell>
        <mxCell id="mn6Bz9EQbWsIdcI53Otu-12" value="&lt;span style=&quot;padding-left: 8px; padding-right: 8px; justify-content: center; color: rgb(40, 37, 61);&quot;&gt;Package all joint models as MultilabelPredictor&lt;/span&gt;" style="rounded=0;whiteSpace=wrap;html=1;" vertex="1" parent="1">
          <mxGeometry x="650" y="370" width="120" height="60" as="geometry" />
        </mxCell>
        <mxCell id="mn6Bz9EQbWsIdcI53Otu-13" value="" style="endArrow=classic;html=1;rounded=0;" edge="1" parent="1">
          <mxGeometry width="50" height="50" relative="1" as="geometry">
            <mxPoint x="710" y="280" as="sourcePoint" />
            <mxPoint x="710" y="370" as="targetPoint" />
          </mxGeometry>
        </mxCell>
        <mxCell id="mn6Bz9EQbWsIdcI53Otu-14" value="Predict per joint&amp;nbsp;" style="rounded=0;whiteSpace=wrap;html=1;" vertex="1" parent="1">
          <mxGeometry x="540" y="480" width="120" height="60" as="geometry" />
        </mxCell>
        <mxCell id="mn6Bz9EQbWsIdcI53Otu-16" value="" style="endArrow=classic;html=1;rounded=0;entryX=0.25;entryY=0;entryDx=0;entryDy=0;" edge="1" parent="1" target="mn6Bz9EQbWsIdcI53Otu-14">
          <mxGeometry width="50" height="50" relative="1" as="geometry">
            <mxPoint x="570" y="270" as="sourcePoint" />
            <mxPoint x="620" y="220" as="targetPoint" />
          </mxGeometry>
        </mxCell>
        <mxCell id="mn6Bz9EQbWsIdcI53Otu-17" value="Evaluation data" style="text;html=1;align=center;verticalAlign=middle;resizable=0;points=[];autosize=1;strokeColor=none;fillColor=none;rotation=90;" vertex="1" parent="1">
          <mxGeometry x="495" y="370" width="110" height="30" as="geometry" />
        </mxCell>
        <mxCell id="mn6Bz9EQbWsIdcI53Otu-18" value="" style="endArrow=classic;html=1;rounded=0;entryX=1;entryY=0.5;entryDx=0;entryDy=0;" edge="1" parent="1" target="mn6Bz9EQbWsIdcI53Otu-14">
          <mxGeometry width="50" height="50" relative="1" as="geometry">
            <mxPoint x="710" y="430" as="sourcePoint" />
            <mxPoint x="710" y="510" as="targetPoint" />
            <Array as="points">
              <mxPoint x="710" y="510" />
            </Array>
          </mxGeometry>
        </mxCell>
      </root>
    </mxGraphModel>
  </diagram>
</mxfile>
